<svg width="400" height="400" viewBox="0 0 400 400" fill="none" xmlns="http://www.w3.org/2000/svg">
<path d="M0 30C0 13.4315 13.4315 0 30 0H370C386.569 0 400 13.4315 400 30V370C400 386.569 386.569 400 370 400H30C13.4315 400 0 386.569 0 370V30Z" fill="#1B263B"/>
<path d="M165.393 139.908C162.626 134.296 162.644 127.713 165.442 122.116L182.025 88.9486C189.412 74.1761 210.507 74.2163 217.837 89.0169L315.699 286.624C322.283 299.917 312.611 315.5 297.777 315.5H264.436C256.821 315.5 249.867 311.176 246.499 304.347L165.393 139.908Z" fill="#E0E1DD"/>
<path d="M175 275C175 297.091 157.091 315 135 315C112.909 315 95 297.091 95 275C95 252.909 112.909 235 135 235C157.091 235 175 252.909 175 275Z" fill="#E0E1DD"/>
</svg>
