<svg width="400" height="400" viewBox="0 0 400 400" fill="none" xmlns="http://www.w3.org/2000/svg">
<path d="M0 30C0 13.4315 13.4315 0 30 0H370C386.569 0 400 13.4315 400 30V370C400 386.569 386.569 400 370 400H30C13.4315 400 0 386.569 0 370V30Z" fill="#415A77"/>
<path d="M165.393 140.017C162.626 134.406 162.644 127.823 165.442 122.226L182.025 89.0585C189.412 74.286 210.507 74.3262 217.837 89.1268L315.699 286.734C322.283 300.027 312.611 315.61 297.777 315.61H264.436C256.821 315.61 249.867 311.286 246.499 304.457L165.393 140.017Z" fill="#E0E1DD"/>
<path d="M175 275.11C175 297.201 157.091 315.11 135 315.11C112.909 315.11 95 297.201 95 275.11C95 253.018 112.909 235.11 135 235.11C157.091 235.11 175 253.018 175 275.11Z" fill="#E0E1DD"/>
</svg>
